<?xml version="1.0" encoding="UTF-8"?>
<svg id="Layer_1" xmlns="http://www.w3.org/2000/svg" version="1.1" viewBox="0 0 507 399">
  <!-- Generator: Adobe Illustrator 29.1.0, SVG Export Plug-In . SVG Version: 2.1.0 Build 142)  -->
  <defs>
    <style>
      .st0 {
        fill: #fff;
      }
    </style>
  </defs>
  <path class="st0" d="M77.7,357.7c-6.2,4-14.5,2.7-21.4.2-20.9-7.7-37.3-26.5-42.8-48.1-5.5-21.6-.1-45.6,13.5-63.2,4.3-5.5,9.3-10.4,14.2-15.3,32.9-32.4,66.4-65.2,107.1-86.9,7.8-4.2,15.8-7.9,24.4-10,8.3-2,19.9-1.8,28.4-.5-2.8,5.4-4.2,11.6-3.4,17.6h0c.7,5.5,3.1,10.6,6.4,15-6.6,3.5-13.7,9.9-16.1,17-1.5,4.5-1.9,9.2-3.4,13.7-1.5,4.5-4.3,8.9-8.7,10.4-8.5,3-19.1-5.5-26.3,0-5,3.8-4,11.7-1.2,17.2,2.9,5.6,7.2,10.7,7.8,16.9.7,7.7-5.7,15.3-13.4,16-4.8.4-9.4-1.5-14.1-2.5-4.7-.9-10.3-.5-13.2,3.3-3,3.9-1.7,9.7.9,13.8,2.6,4.2,6.4,7.5,8.7,11.9,2.1,4,2.8,8.8,1.4,13.1s-5.2,7.8-9.7,8.5c-6.2.8-11.6-3.6-17.5-5.7-5.5-2-12.6-1.4-15.9,3.5-3.9,5.8-.2,13.4,1.8,20.1,1.9,6.2,2.3,12.9,1.1,19.2-1.1,5.8-3.7,11.7-8.7,14.9Z"/>
  <path class="st0" d="M453.8,313.1c-6.3,1.8-13.5,1.8-19.2-1.4-5.8-3.2-9.7-10-8.4-16.5,1.5-8,9.9-13.3,11.4-21.2.2-1.3.3-2.7-.5-3.7-.7-.9-1.8-1.4-2.9-1.8-5.1-1.6-10.7-1.6-15.7,0-5.2,1.7-10.6,5.2-15.7,3.4-4.8-1.7-7.1-7.4-6.7-12.4.4-5,2.9-9.6,5.1-14.2,2.2-4.6,4.1-9.6,3.3-14.6-.6-3.6-3.4-7.3-7-7.1-2.9.2-5,2.6-7,4.7-4.3,4.5-9.8,8.3-16,9-1.1.1-2.4,0-3.3-.5-1-.6-1.4-1.8-1.7-3-1.8-6.3-1.2-13.2,1.6-19.1,2.1-4.5,5.5-8.6,5.8-13.6,0-1.7-.2-3.5-1.1-4.9-2.8-4.6-9.6-4.3-14.5-2.1-4.9,2.2-9.4,5.8-14.8,5.9-5.4.2-10.4-3.2-13.6-7.6-3.1-4.4-5.2-12-6.8-17.2,1.6-1.3,3.2-2.7,4.6-4.2,2.1-2.3,4-4.9,5.5-7.6,1.6-2.9,2.7-6,3.5-9.1.8-3.4,1.2-6.9,1.1-10.5h0c16.4-6,35.6-12.9,52.9-10.7,14.4,1.9,27.4,9.2,39.8,16.6,10.6,6.3,21.3,13,29.3,22.5,5.9,7,10.1,15.3,14.3,23.5,5.7,11.4,11.5,22.8,15,35.1,3.5,12.2,4.5,25.5.7,37.6-1.8,5.9-4.8,11.4-8,16.7-7.4,12.2-17.2,24.1-30.9,28.2Z"/>
  <path class="st0" d="M192.6,147.9c0-5.5,1.4-11.1,4.2-16.4h0c2-3.8,4.6-7.3,7.7-10.3,1.5-1.4,3.1-2.8,4.9-4,6.7-4.8,15.2-8,24.4-9.3,1.1-.2,2.1-.3,3.1-.3,2.9-.3,5.6-.3,8.1,0,9.3,1,18.2,5.6,24.2,12.9,2,2.4,3.6,6,4.9,11.1,1.3,5,2.1,10.4,2.5,14.1.5,4.6.7,8.3.7,10.2,0,6.4-1.6,12.7-4.4,18-.6,1.1-1.2,2.1-1.8,3-5.4,8.1-15.6,13.2-27.2,13.7-9.6.4-19.2-2-27.8-7-4.3-2.5-8.2-5.5-11.6-9-1.6-1.6-3-3.3-4.2-5-4.1-5.5-6.5-11.3-7.3-17.2v-.4c-.2-1.3-.3-2.6-.3-3.9ZM267.2,155.4c0-1.7-.2-5-.6-8.9-.4-3.3-1.1-8.3-2.2-12.7-1.3-4.9-2.5-6.7-2.9-7.2-4.4-5.2-10.7-8.6-17.5-9.3-1.9-.2-4-.2-6.3,0-.8,0-1.6.2-2.5.3-7.7,1.1-14.6,3.7-20,7.6-1.4,1-2.6,2-3.8,3.1-2.3,2.3-4.3,4.9-5.8,7.7h0c-2.5,4.8-3.5,9.9-2.8,14.7v.3c.7,4.2,2.5,8.3,5.5,12.3,1,1.3,2.1,2.7,3.4,3.9,2.8,2.8,5.9,5.3,9.4,7.3,7,4.1,14.7,6,22.4,5.7,8.5-.4,15.7-3.8,19.3-9.2.4-.6.9-1.4,1.3-2.2,2.1-4,3.2-8.6,3.3-13.4,0,0,0,0,0-.1Z"/>
  <path class="st0" d="M264.2,132.8v-.6c.5-5.5,6.1-10.4,10.9-14.1,2.7-2,5.4-4.1,8.5-5.8,7.8-4.2,17.1-5.7,26.5-4.2,3.1.5,6.3,1.4,9.3,2.6,5.1,2,10,4.8,14.5,8.3,2,1.6,5,4.1,7.2,7.5.4.7.8,1.3,1.1,1.9,1.3,2.4,2.2,5.2,2.8,8.3.4,2.2.7,4.5.8,6.6.1,4-.3,8-1.2,11.8-.9,3.6-2.2,7.1-4,10.3-1.7,3.1-3.8,6-6.2,8.6-1.6,1.7-3.3,3.3-5.2,4.8-3.1,2.5-6.6,4.5-10.3,6-5,2-10.4,3.1-15.6,3.1-.6,0-1.1,0-1.7,0-3.3-.2-6.5-.7-9.2-1.2-5.3-1-10.5-2.6-15.2-4.6-4.7-2-8.8-4.4-12-7.1l-.3-.3,3.7-3.7,3-3.7c2.5,2.1,5.7,3.9,9.5,5.6,4,1.7,8.5,3.1,13.1,4,2.4.5,5.1,1,7.7,1.1.4,0,.8,0,1.3,0,3.9,0,8-.8,11.8-2.3,2.8-1.1,5.5-2.7,7.9-4.6,1.4-1.1,2.8-2.3,4-3.7,1.9-2,3.5-4.2,4.8-6.6,1.3-2.5,2.4-5.1,3-7.9.7-3,1-6.1.9-9.1,0-1.7-.3-3.4-.6-5.1-.4-2.2-1-4.1-1.9-5.6h0c-.1-.4-.3-.8-.6-1.1-1.1-1.6-2.6-3.2-5-5.1-3.7-2.9-7.7-5.3-11.9-6.9-2.4-.9-4.9-1.6-7.4-2-7.1-1.2-14.2-.1-20,3.1-2.4,1.3-4.7,3.1-7.2,4.9-6.1,4.7-6.9,6.7-7,7.1h0s0,0,0,0c0,0,0,0,0,0l-3.2-.3h-6.8Z"/>
  <path class="st0" d="M143.9,323.4c0-4.3,1.5-8.1,2.8-11.4,5.7-13.5,14-25.6,21.9-37.3,6.9-10.2,14.1-20.8,19.4-32,2.3-4.9,4.3-10.1,6.3-15.1,3.1-8.1,6.4-16.6,9.6-24.9,3.2-8.5,6.6-17.2,9.8-25.5l9.3,3.6c-3.2,8.2-6.6,17-9.8,25.5-3.2,8.3-6.5,16.9-9.6,25-2,5.1-4.1,10.5-6.5,15.7-5.6,11.9-13,22.8-20.2,33.3-8,11.9-15.7,23.1-21,35.6-1,2.4-2.1,5.1-2,7.6,0,2.2.9,4.6,1.9,6.9,4.8,11.2,11.9,21.5,20.8,29.9,2.8,2.6,6.5,5.9,10.8,7.4,3.7,1.3,7.6,1,10.2-.7,4-2.8,4.6-9.2,3-13.8-2.1-5.8-7-10.5-11.9-14.6-1.1-.9-3.6-3-3.8-6.5-.1-2,.6-3.6,1.1-4.5,19.6-40.9,41.2-89.8,52.7-143.1l9.8,2.1c-11.6,54-33.3,103.4-53.1,144.6,5.7,4.8,11.8,10.8,14.6,18.7,3,8.3,1.6,19.6-6.7,25.4-5.2,3.6-12.4,4.3-19.2,2-6.1-2.1-10.9-6.2-14.4-9.5-9.8-9.3-17.8-20.8-23.1-33.3-1.4-3.2-2.7-6.8-2.7-10.7,0,0,0-.2,0-.2ZM194.8,332.2h0,0Z"/>
  <path class="st0" d="M274.4,179.3l9.4-3.3c4.7,13.4,6.1,27.6,7.5,41.3.9,9.1,1.8,18.4,3.7,27.3,1.6,7.3,3.9,14.7,6.1,21.9l18,57.4c.2.6.5,1.6.7,1.9.2.3,1.9.5,5.3-.8,9.8-3.9,18.8-9.9,26.1-17.5,4.4-4.5,6.8-8.4,7.5-12.1.7-3.4-.5-7.9-3.6-9.5-3.7-1.8-9.1.6-14.3,3.4l-5.1,2.8-2-5.4c-14.9-40.3-26.8-74.6-35.4-102l9.5-3c8.1,26.1,19.3,58.4,33.2,96.3,5.1-2.3,12-4.2,18.4-1,7.7,3.8,10.3,13.1,8.9,20.3-1.5,7.6-6.5,13.4-10.2,17.2-8.3,8.5-18.5,15.4-29.6,19.8-9.6,3.8-14.5.4-16.5-2-1.6-1.8-2.2-3.9-2.7-5.5l-18-57.4c-2.3-7.4-4.7-15-6.3-22.8-2-9.4-3-19-3.9-28.4-1.4-13.7-2.7-26.7-7-39Z"/>
  <path class="st0" d="M6.4,292.7c0-17.5,5.8-35.3,16.6-49.3,4.5-5.8,9.7-10.9,14.7-15.8,32.8-32.2,66.6-65.5,108.2-87.8,6.8-3.6,15.8-8.1,25.6-10.4,9.8-2.4,22.5-1.8,30.3-.5l-.8,4.9v5s-.4,0-.4,0h-.4c-7.5-1.2-18.6-1.6-26.4.3-8.7,2.1-17,6.2-23.2,9.5-40.3,21.6-73.7,54.4-105.9,86.1-4.8,4.7-9.7,9.6-13.8,14.8-12.8,16.6-17.6,39.2-12.6,59,5.1,20.4,20.3,37.5,39.6,44.6,5.1,1.9,12.1,3.4,17,.3,4.3-2.7,5.9-8.4,6.5-11.6,1-5.6.7-11.4-1-16.9-.3-1-.7-2.1-1-3.1-2.2-6.4-4.8-14.3-.2-21.2,4.9-7.3,14.7-7.9,21.7-5.4,2.1.7,4,1.7,5.9,2.6,3.5,1.7,6.5,3.2,9.2,2.8,2.4-.3,4.8-2.4,5.6-5.1.9-2.7.5-6.2-1.1-9.2-1.1-2-2.6-3.9-4.2-5.9-1.4-1.8-2.9-3.6-4.3-5.7-4.3-6.8-4.5-14.4-.6-19.5,3.7-4.8,10.3-6.7,18.2-5.2,1.6.3,3.1.7,4.5,1.1,3,.8,5.7,1.5,8.2,1.3,2.3-.2,4.7-1.5,6.4-3.6,1.7-2.1,2.6-4.6,2.4-6.9-.3-3.3-2.3-6.6-4.4-10.2-1-1.6-1.9-3.2-2.8-4.9-1.9-3.7-2.9-7.8-2.9-11.6,0-5,2-9.2,5.5-11.9,5.8-4.4,12.6-2.8,18.1-1.5,3.6.9,7.1,1.7,9.6.8,3.3-1.2,5-5.5,5.6-7.3.6-1.9,1-4,1.5-6.2.5-2.4,1-5,1.9-7.5,3-9,11.5-16.1,18.4-19.8l4.7,8.8c-6.6,3.5-12,9.1-13.7,14.2-.7,2-1.1,4.1-1.6,6.4-.5,2.3-1,4.8-1.8,7.2-2.3,6.9-6.4,11.7-11.8,13.6-5.2,1.8-10.5.6-15.2-.5-4.8-1.1-7.8-1.7-9.7-.3-2.4,1.9-1.8,7,.2,11,.7,1.4,1.6,2.8,2.5,4.3,2.5,4.1,5.3,8.8,5.8,14.4.4,5-1.3,10.2-4.7,14.2-3.4,4.1-8.3,6.7-13.3,7.1-4.2.4-8.2-.7-11.6-1.6-1.4-.4-2.6-.7-3.9-.9-2.9-.6-6.8-.5-8.3,1.4-1.4,1.9-.5,5.5,1.1,8.1,1,1.6,2.2,3.1,3.5,4.7,1.9,2.3,3.8,4.7,5.3,7.5,2.9,5.5,3.5,11.7,1.7,17-2.1,6.2-7.6,11-13.8,11.8-5.8.8-10.7-1.6-15-3.8-1.7-.8-3.3-1.6-4.9-2.2-3.6-1.3-8.3-1-10,1.6-1.8,2.6-.6,6.7,1.4,12.5.4,1.1.8,2.3,1.1,3.4,2.1,7,2.6,14.5,1.2,21.6-1.5,8.2-5.4,14.7-10.9,18.2-6.6,4.2-15.5,4.4-25.8.6-22.4-8.3-39.9-28-45.9-51.6-1.5-5.9-2.2-12.1-2.2-18.3Z"/>
  <path class="st0" d="M321.3,176.6l9.6-2.9.4,1.3c1.4,4.7,3.3,11.1,5.7,14.5,2,2.8,5.5,5.7,9.3,5.6,2.6,0,5.4-1.6,8.4-3.2,1.4-.8,2.9-1.6,4.5-2.3,7.2-3.2,16.6-2.9,20.8,4.1,1.3,2.2,2,4.9,1.8,7.8-.3,4.7-2.5,8.5-4.4,11.8-.7,1.2-1.4,2.4-1.9,3.6-2.3,4.8-2.8,10.4-1.3,15.5,5.2-.6,9.7-4.4,12.6-7.4l.3-.4c2.2-2.4,5.3-5.6,10-5.8,6.7-.4,11.2,5.5,12.2,11.3,1.1,6.4-1.3,12.4-3.7,17.5-.3.6-.5,1.1-.8,1.7-1.8,3.7-3.5,7.3-3.8,10.8-.2,2.9,1,6.4,3.3,7.3,2.1.8,5.2-.5,8.4-1.8,1.3-.5,2.7-1.1,4.1-1.6,6-2,12.7-2,18.8-.1,1,.3,3.7,1.2,5.5,3.7,1.4,2,1.9,4.6,1.3,7.5-1,5.1-4,9.1-6.6,12.7-2.2,2.9-4.2,5.7-4.8,8.6-.8,4,1.8,8.8,6,11.2,4.1,2.3,9.7,2.6,15.3,1,10.1-3,19.3-11.5,28.1-25.9,3.7-6.1,6-10.9,7.5-15.6,3.1-10,2.9-22-.7-34.8-3.3-11.8-9.1-23.2-14.6-34.2-4-7.9-8.1-16-13.6-22.6-7.4-8.7-17.5-15.1-28-21.4-12.4-7.4-24.7-14.2-37.9-16-16.4-2.1-35.3,4.8-50.6,10.4l-3.5-9.4c16.2-6,36.5-13.4,55.3-11,15.1,2,28.4,9.3,41.8,17.3,11.3,6.8,22.2,13.6,30.5,23.6,6.3,7.5,10.7,16.1,14.9,24.5,5.8,11.4,11.7,23.2,15.3,35.9,4.1,14.6,4.3,28.6.6,40.5-2.2,7-5.7,13.2-8.5,17.8-10.1,16.7-21.2,26.7-33.8,30.4-8.2,2.4-16.6,1.7-23-1.9-8-4.5-12.5-13.4-10.9-21.8,1-5.1,4-9.1,6.6-12.7,2.1-2.9,4.2-5.6,4.8-8.4-4.1-1.3-8.5-1.2-12.5,0-1.1.4-2.3.8-3.5,1.3-4.3,1.8-9.8,4-15.5,2-7.3-2.5-10.6-10.8-10-17.6.4-5.3,2.7-10.1,4.7-14.3.3-.5.5-1.1.8-1.6,1.8-3.9,3.4-8,2.8-11.6-.3-1.8-1.5-2.9-1.8-2.9-.7,0-2.3,1.7-3.2,2.7l-.4.4c-5.9,6.2-12.5,9.8-19.1,10.5-1.7.2-4.3.2-6.6-1.4-2.6-1.7-3.4-4.6-3.7-5.7-2.1-7.4-1.4-15.7,1.9-22.7.7-1.5,1.5-2.9,2.3-4.2,1.5-2.6,2.9-5.1,3.1-7.5,0-.8,0-1.6-.4-2-1.1-1.8-5.2-1.5-8.2-.1-1.2.6-2.5,1.2-3.9,2-3.7,2-7.8,4.2-12.8,4.4-6.6.2-13.3-3.4-17.8-9.7-3.4-4.7-5.6-12.1-7.1-17.4l-.4-1.2ZM374.4,233.1h0Z"/>
  <path class="st0" d="M204.7,95.4c0-8.4,1-15.5,3.1-21.2,5.6-15.7,17-28.5,27.1-39.8,4-4.5,9-10.2,16.1-12.8,4.1-1.5,8.9-1.3,12.4.5,2.7,1.4,4.6,3.7,5.3,6.5.9,3.5-.2,6.6-1.4,9.4-3.5,7.8-8,15.2-12.3,22.3-6.5,10.7-12.6,20.8-15.6,32.2-1.5,5.7-.6,12.3,2.2,17.2l-8.6,5c-4.2-7.2-5.4-16.5-3.3-24.7,3.3-12.8,10.1-24,16.7-34.9,4.2-6.9,8.5-13.9,11.7-21.2.8-1.9.9-2.6.9-2.9-.3-.4-2.5-.9-4.5-.1-4.7,1.8-8.6,6.2-12.1,10-9.9,11.1-20.1,22.6-25.1,36.5-3.3,9.3-3.3,23.7,0,42.8l-9.9,1.7c-1.7-10-2.6-18.9-2.6-26.6Z"/>
  <path class="st0" d="M312.8,113.7c3.4-9.3,4.6-20.9,5.7-32.2.8-8.1,1.6-16.5,3.3-24,2.7-12.1,8.4-20.4,16.4-24,3.9-1.7,7.8-1.9,10.9-.3,2.2,1.1,3.7,2.8,4.9,4.4,10.1,13.4,13.6,32.1,9.6,51.1-3.1,14.8-9.9,28.7-21.8,45l-8.1-5.9c11.1-15.1,17.3-27.8,20.1-41.2,3.4-16,.5-32.1-7.8-43-.8-1-1.1-1.3-1.3-1.4-.2,0-1,0-2.4.5-6.3,2.8-9.3,10.8-10.7,17-1.5,6.9-2.3,14.6-3.1,22.8-1.2,11.9-2.4,24.1-6.2,34.6l-9.4-3.4Z"/>
</svg>