<?xml version="1.0" encoding="UTF-8"?>
<svg id="Layer_1" xmlns="http://www.w3.org/2000/svg" version="1.1" viewBox="0 0 406.8 38.1">
  <!-- Generator: Adobe Illustrator 29.1.0, SVG Export Plug-In . SVG Version: 2.1.0 Build 142)  -->
  <defs>
    <style>
      .st0 {
        fill: #f05747;
      }
    </style>
  </defs>
  <path class="st0" d="M13.9,38.1h-6.9v-3.5h-3.5v-3.5H0V10.4h3.5v-3.5h3.5v20.8h3.5v3.5h3.5v3.5h3.5v3.5h-3.5ZM20.8,31.2V10.4h-3.5v-3.5h-3.5v-3.5h-3.5v3.5h-3.5v-3.5h3.5V0h10.4v3.5h3.5v3.5h3.5v20.8h-3.5v3.5h-3.5ZM17.3,34.7v-3.5h3.5v3.5h-3.5Z"/>
  <path class="st0" d="M61.2,38.1h-20.8v-3.5h-3.5V10.4h-3.5v-3.5h3.5v-3.5h3.5V0h3.5v31.2h3.5v3.5h10.4V10.4h-3.5v-3.5h3.5v-3.5h3.5V0h3.5v31.2h3.5v3.5h-3.5v3.5h-3.5Z"/>
  <path class="st0" d="M74,10.4v-3.5h3.5v3.5h-3.5ZM94.8,38.1h-6.9v-3.5h-3.5V6.9h3.5v-3.5h-6.9v3.5h-3.5v-3.5h3.5V0h17.3v3.5h3.5V0h3.5v10.4h-6.9v-3.5h-3.5v-3.5h-3.5v27.7h3.5v3.5h3.5v3.5h-3.5ZM98.2,34.7v-3.5h3.5v3.5h-3.5ZM101.7,31.2v-3.5h3.5v3.5h-3.5Z"/>
  <path class="st0" d="M131.8,34.7h3.5v3.5h-17.3v-3.5h-3.5V10.4h-3.5v-3.5h3.5v-3.5h3.5V0h3.5v3.5h3.5v3.5h-3.5v10.4h10.4v3.5h-10.4v10.4h3.5v3.5h6.9ZM135.2,10.4h-3.5v-3.5h-3.5v-3.5h-3.5V0h10.4v3.5h3.5V0h3.5v6.9h-3.5v3.5h-3.5ZM135.2,34.7v-3.5h3.5v3.5h-3.5Z"/>
  <path class="st0" d="M172.2,38.1h-3.5v-17.3h-6.9v-3.5h3.5v-3.5h3.5v-6.9h-3.5v-3.5h-3.5v3.5h-3.5v13.9h3.5v3.5h-3.5v6.9h3.5v3.5h-3.5v3.5h-6.9V10.4h-3.5v-3.5h3.5v-3.5h3.5V0h3.5v3.5h3.5V0h10.4v3.5h3.5v6.9h-3.5v6.9h3.5v13.9h3.5v3.5h-3.5v3.5h-3.5Z"/>
  <path class="st0" d="M225.4,31.2v-6.9h-3.5v-3.5h-13.9v-3.5h-3.5v-6.9h3.5v-3.5h3.5v6.9h13.9v3.5h3.5v3.5h3.5v6.9h-3.5v3.5h-3.5ZM218.5,34.7h3.5v3.5h-13.9v-3.5h-3.5v-6.9h6.9v3.5h3.5v3.5h3.5ZM225.4,10.4h-3.5v-3.5h-3.5v-3.5h-3.5v3.5h-3.5v-3.5h3.5V0h10.4v3.5h6.9v3.5h-3.5v3.5h-3.5ZM221.9,34.7v-3.5h3.5v3.5h-3.5Z"/>
  <path class="st0" d="M262.4,38.1h-3.5v-17.3h-10.4v17.3h-6.9V10.4h-3.5v-3.5h3.5v-3.5h3.5V0h3.5v17.3h10.4V3.5h3.5V0h3.5v31.2h3.5v3.5h-3.5v3.5h-3.5Z"/>
  <path class="st0" d="M295.9,38.1h-3.5v-17.3h-3.5v3.5h-3.5v-3.5h3.5v-3.5h3.5v-6.9h-3.5v-3.5h-6.9v17.3h3.5v3.5h-3.5v3.5h3.5v3.5h-3.5v3.5h-6.9V10.4h3.5v-3.5h3.5v-3.5h3.5V0h6.9v3.5h3.5v3.5h3.5v24.3h3.5v3.5h-3.5v3.5h-3.5Z"/>
  <path class="st0" d="M315.5,38.1h-3.5V10.4h-3.5v-3.5h3.5v-3.5h3.5V0h3.5v3.5h3.5v3.5h-3.5v13.9h10.4v3.5h-3.5v3.5h-6.9v3.5h3.5v3.5h-3.5v3.5h-3.5ZM329.4,20.8V6.9h-3.5v-3.5h-3.5V0h10.4v3.5h3.5v13.9h-3.5v3.5h-3.5Z"/>
  <path class="st0" d="M362.9,34.7h3.5v3.5h-17.3v-3.5h-3.5V10.4h-3.5v-3.5h3.5v-3.5h3.5V0h3.5v3.5h3.5v3.5h-3.5v10.4h10.4v3.5h-10.4v10.4h3.5v3.5h6.9ZM366.4,10.4h-3.5v-3.5h-3.5v-3.5h-3.5V0h10.4v3.5h3.5V0h3.5v6.9h-3.5v3.5h-3.5ZM366.4,34.7v-3.5h3.5v3.5h-3.5Z"/>
  <path class="st0" d="M399.9,31.2v-6.9h-3.5v-3.5h-13.9v-3.5h-3.5v-6.9h3.5v-3.5h3.5v6.9h13.9v3.5h3.5v3.5h3.5v6.9h-3.5v3.5h-3.5ZM393,34.7h3.5v3.5h-13.9v-3.5h-3.5v-6.9h6.9v3.5h3.5v3.5h3.5ZM399.9,10.4h-3.5v-3.5h-3.5v-3.5h-3.5v3.5h-3.5v-3.5h3.5V0h10.4v3.5h6.9v3.5h-3.5v3.5h-3.5ZM396.5,34.7v-3.5h3.5v3.5h-3.5Z"/>
</svg>