<?xml version="1.0" encoding="UTF-8"?>
<svg id="Layer_1" xmlns="http://www.w3.org/2000/svg" version="1.1" viewBox="0 0 416.9 48.4">
  <!-- Generator: Adobe Illustrator 29.6.1, SVG Export Plug-In . SVG Version: 2.1.1 Build 9)  -->
  <defs>
    <style>
      .st0 {
        fill: #f05747;
      }

      .st1 {
        fill: #1d1d1d;
      }
    </style>
  </defs>
  <g>
    <path class="st0" d="M17.96,45.7l-.1-.1h-8.36v-3.5h-3.5v-3.5h-3.5V12.9h3.5v-3.5h3.3v-3.5h3.5v-3.4h15.4v3.5h3.5v3.5h3.5v25.8h-3.5v3.5h-3.4v3.4h-3.3v3.5h-7.04ZM23.3,33.7v-15.8h-3.5v-3.5h-5.3v15.8h3.5v3.5h5.3Z"/>
    <path class="st1" d="M25.7,5v3.5h3.5v3.5h3.5v20.8h-3.5v3.5h-3.4V15.4h-3.5v-3.5h-3.5v-3.5h-3.5v3.5h-3.5v-3.5h3.5v-3.4h10.4M12,11.9v20.8h3.5v3.5h3.5v3.5h3.5v3.5h-3.5l-.1-.1h-6.9v-3.5h-3.5v-3.5h-3.5V15.4h3.5v-3.5h3.5M25.8,36.2l-.1.1h.1v3.4h-3.5v-3.5h3.5M30.7,0H10.3v3.4h-3.5v3.5h-3.3v3.5H0v30.7h3.5v3.5h3.5v3.5h9.83l.1.1h10.57v-3.5h3.3v-3.4h3.4v-3.5h3.5v-6.43l.17-.17h-.17V7h-3.5v-3.5h-3.5V0h0ZM17,16.9h.3v3.5h3.5v10.8h-.3v-3.5h-3.5v-10.8h0Z"/>
  </g>
  <g>
    <polygon class="st0" points="65.26 45.7 65.16 45.6 42.9 45.6 42.9 42.1 39.4 42.1 39.4 17.9 35.9 17.9 35.9 9.4 39.4 9.4 39.4 5.9 42.9 5.9 42.9 2.5 51.4 2.5 51.4 33.7 54.9 33.7 54.9 37.2 60.3 37.2 60.3 17.9 56.8 17.9 56.8 9.4 60.3 9.4 60.3 5.9 63.8 5.9 63.8 2.5 72.3 2.5 72.3 33.7 75.8 33.7 75.8 42.2 72.3 42.2 72.3 45.7 65.26 45.7"/>
    <path class="st1" d="M69.8,5v31.2h3.5v3.5h-3.5v3.5h-3.5l-.1-.1h-20.8v-3.5h-3.5V15.4h-3.5v-3.5h3.5v-3.5h3.5v-3.4h3.5v31.2h3.5v3.5h10.4V15.4h-3.5v-3.5h3.5v-3.5h3.5v-3.4h3.5M74.8,0h-13.5v3.4h-3.5v3.5h-3.5v13.5h3.5v14.3h-.4v-3.5h-3.5V0h-13.5v3.4h-3.5v3.5h-3.5v13.5h3.5v24.2h3.5v3.5h23.73l.1.1h10.57v-3.5h3.5v-13.5h-3.5V0h0Z"/>
  </g>
  <g>
    <polygon class="st0" points="90.4 45.6 90.4 42.1 86.9 42.1 86.9 14.4 85 14.4 85 17.9 76.5 17.9 76.5 9.4 80 9.4 80 5.9 83.5 5.9 83.5 2.5 112.8 2.5 112.8 17.9 100.9 17.9 100.9 14.4 98.9 14.4 98.9 33.6 102.4 33.6 102.4 33.7 104.2 33.7 104.2 30.2 112.7 30.2 112.7 38.7 109.2 38.7 109.2 42.2 105.9 42.2 105.9 45.6 90.4 45.6"/>
    <path class="st1" d="M110.3,5v10.4h-6.9v-3.5h-3.5v-3.5h-3.5v27.7h3.5v3.5h3.3v.1h.2v3.4h-10.5v-3.5h-3.5V11.9h3.5v-3.5h-6.9v3.5h-3.5v-3.5h3.5v-3.4h17.3v3.5h3.5v-3.5h3.5M82.5,11.9v3.5h-3.5v-3.5h3.5M110.2,32.7v3.5h-3.5v-3.5h3.5M106.7,36.2v3.5h-3.3v-.1h-.2v-3.4h3.5M115.3,0h-34.3v3.4h-3.5v3.5h-3.5v13.5h10.4v24.2h3.5v3.5h20.5v-3.4h3.3v-3.5h3.5v-13.5h-13.5v3.4h-.3v-10.7h13.9V0h0Z"/>
  </g>
  <g>
    <polygon class="st0" points="120.5 45.7 120.5 42.2 117 42.2 117 17.9 113.5 17.9 113.5 9.4 117 9.4 117 5.9 120.5 5.9 120.5 2.5 149.6 2.5 149.6 14.4 146.1 14.4 146.1 17.9 134.2 17.9 134.2 14.4 132.5 14.4 132.5 14.5 129 14.5 129 19.9 139.4 19.9 139.4 28.4 129 28.4 129 33.8 132.5 33.8 132.5 37.2 137.7 37.2 137.7 33.7 146.2 33.7 146.2 42.2 142.8 42.2 142.8 45.7 120.5 45.7"/>
    <path class="st1" d="M147.1,5v6.9h-3.5v3.5h-3.5.1-3.5v-3.5h-3.5v-3.5h-3.5v-3.4h10.4v3.5h3.5v-3.5h3.5M126.5,5v3.5h3.5v3.5h-3.5v10.4h10.4v3.5h-10.4v10.4h3.5v3.5h6.9l-.1-.1h3.5v3.5h-17.3v-3.5h-3.5V15.4h-3.5v-3.5h3.5v-3.5h3.5v-3.4h3.5M143.7,36.2v3.5h-3.5v-3.5h3.5M152.1,0h-34.1v3.4h-3.5v3.5h-3.5v13.5h3.5v24.3h3.5v3.5h27.3v-3.5h3.4v-13.5h-13.5v3.5h-.2v-3.4h-3.5v-.4h10.4v-10.5h6.7v-3.5h3.5V0h0Z"/>
  </g>
  <g>
    <path class="st0" d="M176.26,45.7l-.1-.1h-4.96v-17.3h-1.9v3.5h-3.5v1.9h3.5v8.5h-3.5v3.5h-11.9v-27.8h-3.5v-8.5h3.5v-3.5h3.5v-3.4h22.4v3.5h3.5v11.9h-3.5v1.9h3.5v13.9h3.5v8.5h-3.5v3.5s-7.04,0-7.04,0ZM167.8,19.8v-3.5h3.5v-1.9h-5.5v5.4s2,0,2,0Z"/>
    <path class="st1" d="M177.3,5v3.5h3.5v6.9h-3.5v6.9h3.5v13.9h3.5v3.5h-3.5v3.5h-3.5l-.1-.1h-3.5v-17.3h-6.9v-3.5h3.5v-3.5h3.5v-6.9h-3.5v-3.5h-3.4v-3.4h10.4M163.4,5v3.5h3.4v3.4h-3.5v13.9h3.5v3.5h-3.5v6.9h3.5v3.5h-3.5v3.5h-6.9V15.4h-3.5v-3.5h3.5v-3.5h3.5v-3.4h3.5M166.9,8.4v.1h-.1v-.1h.1M182.3,0h-27.4v3.4h-3.5v3.5h-3.5v13.5h3.5v27.8h16.9v-3.5h.4v3.4h6.43l.1.1h10.57v-3.5h3.5v-13.5h-3.5V3.5h-3.5V0h0Z"/>
  </g>
  <g>
    <path class="st0" d="M210.6,45.7v-3.5h-3.5v-11.9h11.9v3.5h3.5v3.44l1-.04h.9v-3.5h3.5v-1.9h-3.5v-3.5h-13.9v-3.5h-3.5v-11.9h3.5v-3.5h3.4v-3.5h3.5v-3.4h15.4v3.5h6.9v8.5h-3.5v3.5h-3.3v1.8h3.5v3.5h3.5v11.9h-3.5v3.5h-3.5v3.5h-3.4v3.5h-18.9,0ZM223.01,16.3l1.39-.69v-1.21h-5.4v1.9h4.01Z"/>
    <path class="st1" d="M230.3,5v3.5h6.9v3.5h-3.5v3.5h-3.5l.2-.1h-3.5v-3.5h-3.5v-3.5h-3.5v3.5h-3.5v-3.5h3.5v-3.4h10.4M216.5,11.9v6.9h13.9v3.5h3.5v3.5h3.5v6.9h-3.5v3.5h-3.5v-6.9h-3.5v-3.5h-13.9v-3.5h-3.5v-6.9h3.5v-3.5h3.5M216.5,32.8v3.5h3.5v3.5h3.5v-.1h3.5v3.5h-13.9v-3.5h-3.5v-6.9h6.9M230.4,36.2v3.5h-3.5v-3.5h3.5M235.3,0h-20.4v3.4h-3.5v3.5h-3.4v3.5h-3.5v16.9h3.5v.5h-3.4v16.9h3.5v3.5h23.9v-3.5h3.4v-3.5h3.5v-3.5h3.5v-16.9h-3.5v-3.5h-.2v-.3h3.5V3.5h-6.9V0h0Z"/>
  </g>
  <g>
    <polygon class="st0" points="266.46 45.7 266.36 45.6 261.4 45.6 261.4 28.3 256 28.3 256 45.6 244.1 45.6 244.1 17.9 240.6 17.9 240.6 9.4 244.1 9.4 244.1 5.9 247.6 5.9 247.6 2.5 256.1 2.5 256.1 19.8 261.5 19.8 261.5 6 265 6 265 2.5 273.5 2.5 273.5 33.7 277 33.7 277 42.2 273.5 42.2 273.5 45.7 266.46 45.7"/>
    <path class="st1" d="M271,5v31.2h3.5v3.5h-3.5v3.5h-3.5l-.1-.1h-3.5v-17.3h-10.4v17.3h-6.9V15.4h-3.5v-3.5h3.5v-3.5h3.5v-3.4h3.5v17.3h10.4v-13.8h3.5v-3.5h3.5M276,0h-13.5v3.5h-3.5v13.8h-.4V0h-13.5v3.4h-3.5v3.5h-3.5v15.5h3.5v25.7h16.9v-17.3h.4v17.3h6.43l.1.1h10.57v-3.5h3.5v-13.5h-3.5V0h0Z"/>
  </g>
  <g>
    <path class="st0" d="M299.45,45.8l-.1-.2h-4.45v-13.8h-1.9v10.4h-3.5v3.5h-11.9V12.9h3.5v-3.5h3.5v-3.5h3.5v-3.4h11.9v3.5h3.5v3.5h3.5v24.3h3.5v8.5h-3.5v3.5h-7.55ZM291.4,23.3v-3.5h3.5v-1.9h-3.5v-3.5h-1.9v8.9h1.9Z"/>
    <path class="st1" d="M297.5,5v3.5h3.5v3.5h3.5v24.3h3.5v3.5h-3.5v3.5h-3.5l-.1-.2h-3.5v-17.3h-3.5v3.5h-3.4v-.1h-.1v-3.4h3.5v-3.5h3.5v-6.9h-3.5v-3.5h-6.9v17.3h3.4v.1h.1v3.4h-3.5v3.5h3.5v3.5h-3.5v3.5h-6.9V15.4h3.5v-3.5h3.5v-3.5h3.5v-3.4h6.9M302.5,0h-16.9v3.4h-3.5v3.5h-3.5v3.5h-3.5v37.8h16.9v-3.5h.4v3.4h5.41l.1.2h11.59v-3.5h3.5v-13.5h-3.5V7h-3.5v-3.5h-3.5V0h0Z"/>
  </g>
  <g>
    <path class="st0" d="M318,45.9v-.3h-3.5v-27.7h-3.5v-8.5h3.5v-3.5h3.5v-3.4h22.3v3.5h3.5v18.9h-3.5v3.5h-3.4v3.5h-3.5v3.5h-3.4v7h-3.5v3.5h-8.5ZM331.9,23.4v-9h-1.9v.1h-3.5v8.9h5.4Z"/>
    <path class="st1" d="M337.8,5v3.5h3.5v13.9h-3.5v3.5h-3.5l.1-.1v-13.9h-3.5v-3.5h-3.5v-3.4h10.4M324,5v3.5h3.5v3.5h-3.5v13.9h10.4v3.5h-3.5v3.5h-6.9v3.5h3.5v3.5h-3.5v3.5h-3.5v-.3h-3.5V15.4h-3.5v-3.5h3.5v-3.5h3.5v-3.4h3.5M342.8,0h-27.3v3.4h-3.5v3.5h-3.5v13.5h3.5v27.7h3.5v.3h13.5v-3.5h3.5v-7h3.4v-3.5h3.5v-3.5h3.4v-3.5h3.5V3.5h-3.5V0h0Z"/>
  </g>
  <g>
    <polygon class="st0" points="351.6 45.7 351.6 42.2 348.1 42.2 348.1 17.9 344.6 17.9 344.6 9.4 348.1 9.4 348.1 5.9 351.6 5.9 351.6 2.5 380.8 2.5 380.8 14.4 377.3 14.4 377.3 17.9 365.4 17.9 365.4 14.4 363.6 14.4 363.6 14.5 360.1 14.5 360.1 19.9 370.5 19.9 370.5 28.4 360.1 28.4 360.1 33.8 363.6 33.8 363.6 37.2 368.9 37.2 368.9 33.7 377.4 33.7 377.4 42.2 373.9 42.2 373.9 45.7 351.6 45.7"/>
    <path class="st1" d="M378.3,5v6.9h-3.5v3.5h-3.5.1-3.5v-3.5h-3.5v-3.5h-3.5v-3.4h10.4v3.5h3.5v-3.5h3.5M357.6,5v3.5h3.5v3.5h-3.5v10.4h10.4v3.5h-10.4v10.4h3.5v3.5h6.9l-.1-.1h3.5v3.5h-17.3v-3.5h-3.5V15.4h-3.5v-3.5h3.5v-3.5h3.5v-3.4h3.5M374.9,36.2v3.5h-3.5v-3.5h3.5M383.3,0h-34.2v3.4h-3.5v3.5h-3.5v13.5h3.5v24.3h3.5v3.5h27.3v-3.5h3.5v-13.5h-13.5v3.5h-.3v-3.4h-3.5v-.4h10.4v-10.5h6.8v-3.5h3.5V0h0Z"/>
  </g>
  <g>
    <path class="st0" d="M385.1,45.7v-3.5h-3.5v-11.9h11.9v3.5h3.5v3.44l1-.04h1v-3.5h3.4v-1.9h-3.5v-3.5h-13.9v-3.5h-3.5v-11.9h3.5v-3.5h3.4v-3.5h3.5v-3.4h15.4v3.5h6.9v8.5h-3.5v3.5h-3.3v1.8h3.5v3.5h3.5v11.9h-3.5v3.5h-3.4v3.5h-3.5v3.5s-18.9,0-18.9,0ZM397.51,16.3l1.39-.69v-1.21h-5.4v1.9h4.01,0Z"/>
    <path class="st1" d="M404.8,5v3.5h6.9v3.5h-3.5v3.5h-3.5l.2-.1h-3.5v-3.5h-3.5v-3.5h-3.5v3.5h-3.5v-3.5h3.5v-3.4h10.4M391,11.9v6.9h13.9v3.5h3.5v3.5h3.5v6.9h-3.5v3.5h-3.5v-6.9h-3.5v-3.5h-13.9v-3.5h-3.5v-6.9h3.5v-3.5h3.5M391,32.8v3.5h3.5v3.5h3.5v-.1h3.5v3.5h-13.9v-3.5h-3.5v-6.9h6.9M405,36.2v3.5h-3.5v-3.5h3.5M409.8,0h-20.4v3.4h-3.5v3.5h-3.4v3.5h-3.5v16.9h3.5v.5h-3.4v16.9h3.5v3.5h23.9v-3.5h3.5v-3.5h3.4v-3.5h3.5v-16.9h-3.5v-3.5h-.2v-.3h3.5V3.5h-6.9V0h0Z"/>
  </g>
</svg>